<svg xmlns="http://www.w3.org/2000/svg" width="24" height="24" viewBox="0 0 24 24" fill="none" stroke="currentColor" stroke-width="2" stroke-linecap="round" stroke-linejoin="round" class="lucide lucide-webhook"><path d="M18 16.98h-5.99c-1.1 0-1.95.94-2.48 1.9A4 4 0 0 1 2 17c.01-.7.23-1.38.62-2a4.42 4.42 0 0 1 4.54-3.18c1.39.22 2.5 1.39 2.84 2.78.69 2.9 3.23 5 6 5 .83 0 1.6-.2 2.3-.57"/><path d="M18 16.98v-5.45c0-1.3.84-2.5 2-2.9v-2.1c0-.55-.45-1-1-1H7c-.55 0-1 .45-1 1v1.5c0 1.38 1.12 2.5 2.5 2.5h8.5c1.38 0 2.5 1.12 2.5 2.5S18.38 15 17 15h-1.5"/></svg> 